<?xml version="1.0" standalone="no"?><!DOCTYPE svg PUBLIC "-//W3C//DTD SVG 1.1//EN" "http://www.w3.org/Graphics/SVG/1.1/DTD/svg11.dtd"><svg t="1543548957652" class="icon" style="" viewBox="0 0 1024 1024" version="1.1" xmlns="http://www.w3.org/2000/svg" p-id="5105" xmlns:xlink="http://www.w3.org/1999/xlink" width="200" height="200"><defs><style type="text/css"></style></defs><path d="M552.083927 651.52473 552.083927 367.639125 504.193197 367.725082 504.193197 494.937392 394.237923 494.937392 394.237923 542.097482 504.193197 542.097482 504.193197 651.52473Z" p-id="5106"></path><path d="M505.966587 314.340221 553.857317 314.340221 553.857317 171.642219 505.966587 171.685197Z" p-id="5107"></path><path d="M505.205247 883.752816 553.095977 883.752816 553.095977 741.054813 505.205247 741.098815Z" p-id="5108"></path><path d="M152.720264 542.828123 295.418266 542.828123 295.375288 495.668033 152.720264 495.668033Z" p-id="5109"></path><path d="M763.495918 494.432902 763.495918 542.323633 906.20006 542.323633 906.156058 494.432902Z" p-id="5110"></path><path d="M779.088034 655.1677 779.039939 607.27697 619.647719 607.27697 619.647719 616.340393 619.647719 655.1677 619.647719 775.732613 667.538449 775.732613 667.538449 655.1677Z" p-id="5111"></path><path d="M189.867302 436.374602l224.823442 0c22.004153 0 39.908942-17.896602 39.908942-39.908942l0-208.867028c0-22.01234-17.904789-39.908942-39.908942-39.908942L189.867302 147.68969c-22.004153 0-39.908942 17.896602-39.908942 39.908942l0 208.867028C149.95836 418.478 167.863149 436.374602 189.867302 436.374602zM197.84909 195.58042l208.859865 0 0 192.903451L197.84909 388.483872 197.84909 195.58042z" p-id="5112"></path><path d="M872.310206 147.68969 647.486764 147.68969c-22.004153 0-39.908942 17.896602-39.908942 39.908942l0 208.867028c0 22.01234 17.904789 39.908942 39.908942 39.908942l224.823442 0c22.004153 0 39.908942-17.896602 39.908942-39.908942l0-208.867028C912.219147 165.586292 894.314359 147.68969 872.310206 147.68969zM864.328417 388.483872 655.468552 388.483872l0-192.903451 208.859865 0L864.328417 388.483872z" p-id="5113"></path><path d="M414.690744 594.71691 189.867302 594.71691c-22.004153 0-39.908942 17.896602-39.908942 39.908942l0 208.867028c0 22.01234 17.904789 39.908942 39.908942 39.908942l224.823442 0c22.004153 0 39.908942-17.896602 39.908942-39.908942l0-208.867028C454.599685 612.613512 436.694897 594.71691 414.690744 594.71691zM406.708955 835.511091 197.84909 835.511091l0-192.903451 208.859865 0L406.708955 835.511091z" p-id="5114"></path><path d="M857.679997 836.836273 619.549481 836.836273l0 47.89073 246.112304 0c22.004153 0 39.908942-17.896602 39.908942-39.908942L905.570727 607.02626l-47.89073 0L857.679997 836.836273z" p-id="5115"></path></svg>